<svg width="49" height="49" viewBox="0 0 49 49" version="1.1" xmlns="http://www.w3.org/2000/svg" xmlns:xlink="http://www.w3.org/1999/xlink">
<title>Group 2</title>
<desc>Created using Figma</desc>
<g id="Canvas" transform="translate(-303 71)">
<g id="Group 2">
<g id="Ellipse">
<mask id="mask0_outline_ins">
<use xlink:href="#path0_fill" fill="white" transform="translate(303 -71)"/>
</mask>
<g mask="url(#mask0_outline_ins)">
<use xlink:href="#path1_stroke_2x" transform="translate(303 -71)" fill="#FFFFFF"/>
</g>
</g>
<g id="Mask Group">
<mask id="mask1_alpha" mask-type="alpha">
<g id="Ellipse">
<use xlink:href="#path0_fill" transform="translate(303 -71)" fill="#C4C4C4"/>
</g>
</mask>
<g id="Vector" mask="url(#mask1_alpha)">
<use xlink:href="#path2_fill" transform="translate(311 -37.1087)" fill="#FFFFFF"/>
<use xlink:href="#path3_stroke" transform="translate(311 -37.1087)" fill="#FFFFFF"/>
</g>
<g id="Ellipse 2" mask="url(#mask1_alpha)">
<use xlink:href="#path4_fill" transform="translate(317.079 -60)" fill="#FFFFFF"/>
<mask id="mask2_outline_ins">
<use xlink:href="#path4_fill" fill="white" transform="translate(317.079 -60)"/>
</mask>
<g mask="url(#mask2_outline_ins)">
<use xlink:href="#path5_stroke_2x" transform="translate(317.079 -60)" fill="#FFFFFF"/>
</g>
</g>
</g>
</g>
</g>
<defs>
<path id="path0_fill" d="M 49 24.5C 49 38.031 38.031 49 24.5 49C 10.969 49 0 38.031 0 24.5C 0 10.969 10.969 0 24.5 0C 38.031 0 49 10.969 49 24.5Z"/>
<path id="path1_stroke_2x" d="M 47 24.5C 47 36.9264 36.9264 47 24.5 47L 24.5 51C 39.1355 51 51 39.1355 51 24.5L 47 24.5ZM 24.5 47C 12.0736 47 2 36.9264 2 24.5L -2 24.5C -2 39.1355 9.86445 51 24.5 51L 24.5 47ZM 2 24.5C 2 12.0736 12.0736 2 24.5 2L 24.5 -2C 9.86445 -2 -2 9.86445 -2 24.5L 2 24.5ZM 24.5 2C 36.9264 2 47 12.0736 47 24.5L 51 24.5C 51 9.86445 39.1355 -2 24.5 -2L 24.5 2Z"/>
<path id="path2_fill" d="M 16.5314 0C 7.41714 0 0 7.22747 0 16.1087L 33 16.1087C 33 7.22747 25.5829 0 16.5314 0Z"/>
<path id="path3_stroke" d="M 0 16.1087L -1 16.1087L -1 17.1087L 0 17.1087L 0 16.1087ZM 33 16.1087L 33 17.1087L 34 17.1087L 34 16.1087L 33 16.1087ZM 16.5314 -1C 6.88944 -1 -1 6.65092 -1 16.1087L 1 16.1087C 1 7.80401 7.94485 1 16.5314 1L 16.5314 -1ZM 0 17.1087L 33 17.1087L 33 15.1087L 0 15.1087L 0 17.1087ZM 34 16.1087C 34 6.65337 26.1131 -1 16.5314 -1L 16.5314 1C 25.0526 1 32 7.80157 32 16.1087L 34 16.1087Z"/>
<path id="path4_fill" d="M 19.9737 9.74999C 19.9737 15.1348 15.5024 19.5 9.98684 19.5C 4.47126 19.5 0 15.1348 0 9.74999C 0 4.36522 4.47126 0 9.98684 0C 15.5024 0 19.9737 4.36522 19.9737 9.74999Z"/>
<path id="path5_stroke_2x" d="M 17.9737 9.74999C 17.9737 13.9852 14.4434 17.5 9.98684 17.5L 9.98684 21.5C 16.5615 21.5 21.9737 16.2843 21.9737 9.74999L 17.9737 9.74999ZM 9.98684 17.5C 5.53031 17.5 2 13.9852 2 9.74999L -2 9.74999C -2 16.2843 3.41222 21.5 9.98684 21.5L 9.98684 17.5ZM 2 9.74999C 2 5.51477 5.53031 2 9.98684 2L 9.98684 -2C 3.41222 -2 -2 3.21567 -2 9.74999L 2 9.74999ZM 9.98684 2C 14.4434 2 17.9737 5.51477 17.9737 9.74999L 21.9737 9.74999C 21.9737 3.21567 16.5615 -2 9.98684 -2L 9.98684 2Z"/>
</defs>
</svg>
