<svg width="17" height="33" viewBox="0 0 17 33" version="1.1" xmlns="http://www.w3.org/2000/svg" xmlns:xlink="http://www.w3.org/1999/xlink">
<title>Group</title>
<desc>Created using Figma</desc>
<g id="Canvas" transform="translate(852 -724)">
<g id="Group">
<g id="Group">
<g id="Group">
<g id="Vector">
<use xlink:href="#path0_fill" transform="translate(-846.955 724)" fill="#828282"/>
</g>
<g id="Vector">
<use xlink:href="#path1_fill" transform="translate(-852 729.926)" fill="#828282"/>
</g>
</g>
</g>
</g>
</g>
<defs>
<path id="path0_fill" d="M 2.66057 5.33011C 3.37236 5.30907 3.97358 5.0286 4.45732 4.48871C 4.94106 3.94881 5.16911 3.31776 5.14837 2.59556C 5.12764 1.87336 4.85813 1.24932 4.35366 0.73747C 3.84919 0.225619 3.23415 -0.0197895 2.52236 0.00124549C 1.81057 0.0222805 1.20935 0.302747 0.72561 0.842645C 0.24187 1.38254 0 2.01359 0 2.73579C 0 3.45799 0.262602 4.08203 0.794715 4.59388C 1.32683 5.10573 1.94878 5.35815 2.66057 5.33011Z"/>
<path id="path1_fill" d="M 16.4472 8.27376L 12.6463 6.17026L 9.53659 1.12187C 8.93537 0.371618 8.20285 0 7.3252 0C 6.72398 0 6.15041 0.259431 5.59756 0.771283L 0.898374 5.60933C 0.760163 5.79864 0.670325 6.00899 0.621951 6.24038L 0 11.6394L 0 11.7796C 0 12.1091 0.11748 12.3896 0.345528 12.621C 0.573577 12.8524 0.85 12.9716 1.1748 12.9716C 1.49959 12.9716 1.7622 12.8524 1.96951 12.621C 2.17683 12.3896 2.30122 12.1302 2.34959 11.8497L 2.83333 7.22201L 4.49187 5.53921L 2.97154 18.4407L 0.276423 24.5408C 0.186585 24.8213 0.138211 25.0807 0.138211 25.3121C 0.138211 25.8239 0.310976 26.2587 0.656504 26.6092C 1.00203 26.9598 1.43049 27.1141 1.93496 27.065C 2.62602 27.065 3.13049 26.7355 3.45528 26.0834L 6.35772 19.4924C 6.35772 19.4433 6.37846 19.3662 6.42683 19.247C 6.4752 19.1278 6.51667 19.0226 6.56504 18.9315C 6.61341 18.8403 6.63415 18.7422 6.63415 18.651L 6.97967 15.4958L 9.95122 25.873C 10.276 26.7144 10.8496 27.1141 11.6789 27.065C 12.1419 27.065 12.5427 26.8897 12.8882 26.5391C 13.2337 26.1885 13.4065 25.7538 13.4065 25.242C 13.4065 25.1929 13.3927 25.1368 13.372 25.0667C 13.3512 24.9966 13.3374 24.9405 13.3374 24.8914L 9.19106 10.5175L 9.6748 5.81968L 10.8496 7.71283C 10.9394 7.85306 11.0569 7.97226 11.1951 8.06341L 15.2724 10.3773C 15.5488 10.4684 15.7354 10.5175 15.8252 10.5175C 16.15 10.5175 16.4264 10.3913 16.6545 10.1318C 16.8825 9.87242 17 9.58494 17 9.25539C 17 8.83469 16.8134 8.51215 16.4472 8.27376Z"/>
</defs>
</svg>
