<svg width="49" height="49" viewBox="0 0 49 49" version="1.1" xmlns="http://www.w3.org/2000/svg" xmlns:xlink="http://www.w3.org/1999/xlink">
<title>Group 3</title>
<desc>Created using Figma</desc>
<g id="Canvas" transform="translate(-303 -126)">
<g id="Group 3">
<g id="Group 2.2">
<g id="Ellipse">
<mask id="mask0_outline_ins">
<use xlink:href="#path0_fill" fill="white" transform="translate(303 126)"/>
</mask>
<g mask="url(#mask0_outline_ins)">
<use xlink:href="#path1_stroke_2x" transform="translate(303 126)" fill="#FFFFFF"/>
</g>
</g>
</g>
<g id="i">
<use xlink:href="#path2_fill" transform="translate(325 136)" fill="#FFFFFF"/>
</g>
</g>
</g>
<defs>
<path id="path0_fill" d="M 49 24.5C 49 38.031 38.031 49 24.5 49C 10.969 49 0 38.031 0 24.5C 0 10.969 10.969 0 24.5 0C 38.031 0 49 10.969 49 24.5Z"/>
<path id="path1_stroke_2x" d="M 47 24.5C 47 36.9264 36.9264 47 24.5 47L 24.5 51C 39.1355 51 51 39.1355 51 24.5L 47 24.5ZM 24.5 47C 12.0736 47 2 36.9264 2 24.5L -2 24.5C -2 39.1355 9.86445 51 24.5 51L 24.5 47ZM 2 24.5C 2 12.0736 12.0736 2 24.5 2L 24.5 -2C 9.86445 -2 -2 9.86445 -2 24.5L 2 24.5ZM 24.5 2C 36.9264 2 47 12.0736 47 24.5L 51 24.5C 51 9.86445 39.1355 -2 24.5 -2L 24.5 2Z"/>
<path id="path2_fill" d="M 5.68519 28.55C 5.68519 29.3508 5.036 30 4.23519 30L 1.76481 30C 0.964 30 0.314815 29.3508 0.314815 28.55L 0.314815 9.96754C 0.314815 9.16672 0.964002 8.51754 1.76482 8.51754L 4.23519 8.51754C 5.036 8.51754 5.68519 9.16673 5.68519 9.96754L 5.68519 28.55ZM 0 2.95831C 0 2.10106 0.263513 1.39494 0.790538 0.839932C 0.794361 0.835905 0.798247 0.831883 0.802139 0.827923C 1.34477 0.275974 2.07739 0 3 0C 3.91358 0 4.64198 0.277962 5.18519 0.833885C 5.18519 0.833885 5.18519 0.833885 5.18519 0.833885C 5.72839 1.38981 6 2.09795 6 2.95831C 6 3.82887 5.72414 4.5417 5.17243 5.09679C 5.16861 5.10065 5.16476 5.10454 5.16095 5.10841C 4.61839 5.66045 3.89808 5.93647 3 5.93647C 2.10189 5.93647 1.37542 5.66043 0.820596 5.10835C 0.816746 5.10452 0.812899 5.10063 0.809115 5.09673C 0.269705 4.54165 0 3.82884 0 2.95831Z"/>
</defs>
</svg>
