<svg width="22" height="22" viewBox="0 0 22 22" version="1.1" xmlns="http://www.w3.org/2000/svg" xmlns:xlink="http://www.w3.org/1999/xlink">
<title>Star</title>
<desc>Created using Figma</desc>
<g id="Canvas" transform="translate(646 -679)">
<g id="Star">
<mask id="mask0_outline_ins">
<use xlink:href="#path0_fill" fill="white" transform="translate(-647 679)"/>
</mask>
<g mask="url(#mask0_outline_ins)">
<use xlink:href="#path1_stroke_2x" transform="translate(-647 679)" fill="#FFD300"/>
</g>
</g>
</g>
<defs>
<path id="path0_fill" d="M 11.5068 0.999342C 11.7085 0.590557 12.2915 0.590557 12.4932 0.999342L 15.3987 6.8866C 15.4789 7.04893 15.6337 7.16145 15.8129 7.18748L 22.3098 8.13154C 22.761 8.1971 22.9411 8.75148 22.6147 9.06968L 17.9134 13.6523C 17.7838 13.7786 17.7246 13.9607 17.7552 14.1391L 18.865 20.6098C 18.9421 21.0591 18.4705 21.4017 18.067 21.1896L 12.2559 18.1346C 12.0957 18.0503 11.9043 18.0503 11.7441 18.1346L 5.93299 21.1896C 5.52949 21.4017 5.0579 21.0591 5.13496 20.6098L 6.24478 14.1391C 6.27538 13.9607 6.21623 13.7786 6.0866 13.6523L 1.38534 9.06968C 1.05891 8.75148 1.23904 8.1971 1.69016 8.13154L 8.18714 7.18748C 8.36628 7.16145 8.52114 7.04893 8.60126 6.8866L 11.5068 0.999342Z"/>
<path id="path1_stroke_2x" d="M 15.3987 6.8866L 13.6053 7.77174L 15.3987 6.8866ZM 22.3098 8.13154L 22.5974 6.15233L 22.3098 8.13154ZM 17.9134 13.6523L 16.5174 12.2201L 17.9134 13.6523ZM 18.865 20.6098L 20.8363 20.2717L 18.865 20.6098ZM 12.2559 18.1346L 13.1866 16.3643L 12.2559 18.1346ZM 5.93299 21.1896L 6.86367 22.9599L 5.93299 21.1896ZM 6.24478 14.1391L 8.216 14.4772L 6.24478 14.1391ZM 1.38534 9.06968L -0.0106791 10.5018L 1.38534 9.06968ZM 15.8129 7.18748L 15.5253 9.16669L 15.8129 7.18748ZM 17.7552 14.1391L 15.784 14.4772L 17.7552 14.1391ZM 18.067 21.1896L 17.1363 22.9599L 18.067 21.1896ZM 11.7441 18.1346L 10.8134 16.3643L 11.7441 18.1346ZM 6.0866 13.6523L 7.48263 12.2201L 6.0866 13.6523ZM 1.69016 8.13154L 1.40257 6.15233L 1.69016 8.13154ZM 8.60126 6.8866L 10.3947 7.77174L 8.60126 6.8866ZM 10.6997 1.88447L 13.6053 7.77174L 17.1922 6.00147L 14.2867 0.114211L 10.6997 1.88447ZM 15.5253 9.16669L 22.0222 10.1108L 22.5974 6.15233L 16.1005 5.20826L 15.5253 9.16669ZM 21.2186 7.6375L 16.5174 12.2201L 19.3094 15.0844L 24.0107 10.5018L 21.2186 7.6375ZM 15.784 14.4772L 16.8938 20.9479L 20.8363 20.2717L 19.7264 13.801L 15.784 14.4772ZM 18.9977 19.4194L 13.1866 16.3643L 11.3253 19.9048L 17.1363 22.9599L 18.9977 19.4194ZM 10.8134 16.3643L 5.0023 19.4194L 6.86367 22.9599L 12.6747 19.9048L 10.8134 16.3643ZM 7.10618 20.9479L 8.216 14.4772L 4.27356 13.801L 3.16375 20.2717L 7.10618 20.9479ZM 7.48263 12.2201L 2.78137 7.6375L -0.0106791 10.5018L 4.69058 15.0844L 7.48263 12.2201ZM 1.97776 10.1108L 8.47474 9.16669L 7.89955 5.20826L 1.40257 6.15233L 1.97776 10.1108ZM 10.3947 7.77174L 13.3003 1.88447L 9.71332 0.114211L 6.80779 6.00147L 10.3947 7.77174ZM 14.2867 0.114211C 13.3513 -1.78107 10.6487 -1.78107 9.71332 0.114211L 13.3003 1.88447C 12.7684 2.96218 11.2316 2.96218 10.6997 1.88447L 14.2867 0.114211ZM 13.6053 7.77174C 13.9767 8.52435 14.6947 9.046 15.5253 9.16669L 16.1005 5.20826C 16.5727 5.27689 16.981 5.57352 17.1922 6.00147L 13.6053 7.77174ZM 22.0222 10.1108C 20.8329 9.93794 20.358 8.47638 21.2186 7.6375L 24.0107 10.5018C 25.5241 9.02658 24.689 6.45625 22.5974 6.15233L 22.0222 10.1108ZM 16.5174 12.2201C 15.9164 12.8059 15.6421 13.65 15.784 14.4772L 19.7264 13.801C 19.8071 14.2714 19.6512 14.7513 19.3094 15.0844L 16.5174 12.2201ZM 16.8938 20.9479C 16.6907 19.7634 17.9339 18.8601 18.9977 19.4194L 17.1363 22.9599C 19.0071 23.9434 21.1935 22.3548 20.8363 20.2717L 16.8938 20.9479ZM 13.1866 16.3643C 12.4437 15.9737 11.5563 15.9737 10.8134 16.3643L 12.6747 19.9048C 12.2523 20.1269 11.7477 20.1269 11.3253 19.9048L 13.1866 16.3643ZM 5.0023 19.4194C 6.06606 18.8601 7.30934 19.7634 7.10618 20.9479L 3.16375 20.2717C 2.80647 22.3548 4.99292 23.9434 6.86367 22.9599L 5.0023 19.4194ZM 8.216 14.4772C 8.35787 13.65 8.08363 12.8059 7.48263 12.2201L 4.69058 15.0844C 4.34883 14.7513 4.19289 14.2714 4.27356 13.801L 8.216 14.4772ZM 2.78137 7.6375C 3.64197 8.47638 3.16708 9.93794 1.97776 10.1108L 1.40257 6.15233C -0.688997 6.45625 -1.52415 9.02658 -0.0106791 10.5018L 2.78137 7.6375ZM 8.47474 9.16669C 9.3053 9.046 10.0233 8.52435 10.3947 7.77174L 6.80779 6.00147C 7.019 5.57352 7.42727 5.27689 7.89955 5.20826L 8.47474 9.16669Z"/>
</defs>
</svg>
