<svg width="49" height="49" viewBox="0 0 49 49" version="1.1" xmlns="http://www.w3.org/2000/svg" xmlns:xlink="http://www.w3.org/1999/xlink">
<title>Group 2</title>
<desc>Created using Figma</desc>
<g id="Canvas" transform="translate(-303 -27)">
<g id="Group 2">
<g id="Group 2.1">
<g id="Ellipse">
<mask id="mask0_outline_ins">
<use xlink:href="#path0_fill" fill="white" transform="translate(303 27)"/>
</mask>
<g mask="url(#mask0_outline_ins)">
<use xlink:href="#path1_stroke_2x" transform="translate(303 27)" fill="#FFFFFF"/>
</g>
</g>
</g>
<g id="Group">
<g id="Group">
<g id="Subtract">
<use xlink:href="#path2_fill" transform="translate(311 36)" fill="#FFFFFF"/>
</g>
</g>
</g>
</g>
</g>
<defs>
<path id="path0_fill" d="M 49 24.5C 49 38.031 38.031 49 24.5 49C 10.969 49 0 38.031 0 24.5C 0 10.969 10.969 0 24.5 0C 38.031 0 49 10.969 49 24.5Z"/>
<path id="path1_stroke_2x" d="M 47 24.5C 47 36.9264 36.9264 47 24.5 47L 24.5 51C 39.1355 51 51 39.1355 51 24.5L 47 24.5ZM 24.5 47C 12.0736 47 2 36.9264 2 24.5L -2 24.5C -2 39.1355 9.86445 51 24.5 51L 24.5 47ZM 2 24.5C 2 12.0736 12.0736 2 24.5 2L 24.5 -2C 9.86445 -2 -2 9.86445 -2 24.5L 2 24.5ZM 24.5 2C 36.9264 2 47 12.0736 47 24.5L 51 24.5C 51 9.86445 39.1355 -2 24.5 -2L 24.5 2Z"/>
<path id="path2_fill" fill-rule="evenodd" d="M 29.9131 13.2174L 28.9938 13.2174C 28.5539 13.2174 28.1749 12.9142 28.0505 12.4923C 27.7786 11.5693 27.4225 10.7107 27.0016 9.936C 26.8003 9.56554 26.8359 9.1053 27.116 8.79018L 27.738 8.09043C 27.7503 8.07652 27.7632 8.06291 27.7762 8.04959C 28.5912 7.21492 28.5847 5.97598 27.7565 5.14783L 26.7826 4.17391C 25.9529 3.34423 24.6422 3.33916 23.875 4.15869L 23.8623 4.17208C 23.857 4.17762 23.8517 4.18311 23.8463 4.18851L 23.1594 4.87538C 22.8392 5.19559 22.3397 5.24094 21.9463 5.0166C 21.1434 4.55874 20.3306 4.23288 19.4714 4.00273C 19.034 3.88555 18.713 3.50012 18.713 3.04727L 18.713 2.08696C 18.713 0.904346 17.8087 0 16.6261 0L 15.2348 0C 14.0522 0 13.1478 0.904346 13.1478 2.08696L 13.1478 3.05526C 13.1478 3.50451 12.8318 3.88826 12.4001 4.01284C 11.5553 4.25669 10.7159 4.60928 9.90002 5.05233C 9.5144 5.26175 9.03357 5.20747 8.72327 4.89719L 8.06958 4.24348C 7.23477 3.4087 5.9826 3.4087 5.14783 4.24348L 4.17392 5.21739C 3.75653 5.63478 3.54782 6.12174 3.54782 6.67826C 3.54782 7.2305 3.75333 7.71423 4.16431 8.12947C 4.17065 8.1359 4.17722 8.14223 4.18378 8.14845L 4.86615 8.7929C 5.19254 9.10117 5.25537 9.59423 5.03949 9.98788C 4.59964 10.7899 4.24985 11.602 4.00818 12.4603C 3.88544 12.8962 3.50012 13.2174 3.04727 13.2174L 2.08694 13.2174C 0.904358 13.2174 0 14.1217 0 15.3043L 0 16.6957C 0 17.8783 0.904358 18.7826 2.08694 18.7826L 3.05527 18.7826C 3.50452 18.7826 3.88794 19.0988 4.01328 19.5302C 4.25931 20.3771 4.62006 21.2187 5.09549 22.0365C 5.31799 22.4191 5.28024 22.9063 4.97629 23.2282L 4.32236 23.9206C 4.31616 23.9271 4.30978 23.9337 4.30341 23.9401C 3.48242 24.7707 3.48148 26.0081 4.30057 26.8396L 4.31171 26.851C 4.31619 26.8557 4.32065 26.8604 4.32501 26.8651L 5.20541 27.8132C 5.21341 27.8218 5.22159 27.8303 5.22995 27.8386C 6.06146 28.6577 7.29889 28.6567 8.12946 27.8357C 8.13586 27.8294 8.14224 27.8228 8.14844 27.8162L 8.79291 27.1339C 9.10117 26.8075 9.59424 26.7446 9.98788 26.9605C 10.7899 27.4004 11.602 27.7502 12.4604 27.9918C 12.8962 28.1146 13.2174 28.4999 13.2174 28.9527L 13.2174 29.913C 13.2174 31.0956 14.1217 32 15.3044 32L 16.6956 32C 17.8783 32 18.7826 31.0956 18.7826 29.913L 18.7826 28.9938C 18.7826 28.5539 19.0859 28.1751 19.5074 28.0492C 20.4241 27.7753 21.2608 27.4163 22.057 26.9919C 22.4296 26.7934 22.8896 26.8424 23.197 27.1317L 23.8504 27.7467C 23.8574 27.7532 23.8643 27.76 23.8712 27.7667C 24.7059 28.5913 25.9512 28.5879 26.7826 27.7565L 27.7565 26.7826C 28.5913 25.9478 28.5913 24.6957 27.7565 23.8609L 27.1246 23.229C 26.8044 22.9088 26.7591 22.4092 26.9834 22.0159C 27.4413 21.213 27.7671 20.4002 27.9973 19.541C 28.1144 19.1036 28.4999 18.7826 28.9527 18.7826L 29.9131 18.7826C 31.0956 18.7826 32 17.8783 32 16.6957L 32 15.3043C 32 14.1217 31.0956 13.2174 29.9131 13.2174ZM 8.34781 16C 8.34781 20.2435 11.7565 23.6522 16 23.6522C 20.2435 23.6522 23.6522 20.2435 23.6522 16C 23.6522 11.7565 20.2435 8.34785 16 8.34785C 11.7565 8.34785 8.34781 11.7565 8.34781 16Z"/>
</defs>
</svg>
