<svg width="49" height="49" viewBox="0 0 49 49" version="1.1" xmlns="http://www.w3.org/2000/svg" xmlns:xlink="http://www.w3.org/1999/xlink">
<title>Group</title>
<desc>Created using Figma</desc>
<g id="Canvas" transform="translate(-303 171)">
<g id="Group">
<g id="Vector">
<use xlink:href="#path0_fill" transform="matrix(0.707107 0.707107 -0.707107 0.707107 330 -165)" fill="#FFFFFF"/>
<use xlink:href="#path1_stroke" transform="matrix(0.707107 0.707107 -0.707107 0.707107 330 -165)" fill="#FFFFFF"/>
</g>
<g id="Ellipse">
<mask id="mask0_outline_ins">
<use xlink:href="#path2_fill" fill="white" transform="matrix(1 0 0 1 303 -171)"/>
</mask>
<g mask="url(#mask0_outline_ins)">
<use xlink:href="#path3_stroke_2x" transform="matrix(1 0 0 1 303 -171)" fill="#FFFFFF"/>
</g>
</g>
</g>
</g>
<defs>
<path id="path0_fill" d="M 17.2503 3.83395e-16L 16.3878 3.83395e-16C 15.3959 1.85616 13.4552 3.10798 11.2127 3.10798C 8.97016 3.10798 7.0295 1.85616 6.03761 3.83395e-16L 5.17509 3.83395e-16C 2.32879 3.83395e-16 0 2.33099 0 5.17997L 0 24.5185C 0 27.3675 2.32879 29.6985 5.17509 29.6985L 6.03761 29.6985C 7.0295 27.8424 8.97016 26.5905 11.2127 26.5905C 13.4552 26.5905 15.3959 27.8424 16.3878 29.6985L 17.2503 29.6985C 20.0966 29.6985 22.4254 27.3675 22.4254 24.5185L 22.4254 5.17997C 22.4254 2.33099 20.0966 3.83395e-16 17.2503 3.83395e-16ZM 18.1128 20.8062C 18.1128 22.576 16.6897 24.0005 14.9215 24.0005L 7.50388 24.0005C 5.73573 24.0005 4.31258 22.576 4.31258 20.8062L 4.31258 8.89229C 4.31258 7.12246 5.73573 5.69797 7.50388 5.69797L 14.9215 5.69797C 16.6897 5.69797 18.1128 7.12246 18.1128 8.89229L 18.1128 20.8062Z"/>
<path id="path1_stroke" d="M 16.3878 3.83395e-16L 16.3878 -0.5L 16.0881 -0.5L 15.9468 -0.235653L 16.3878 3.83395e-16ZM 6.03761 3.83395e-16L 6.47859 -0.235653L 6.33733 -0.5L 6.03761 -0.5L 6.03761 3.83395e-16ZM 6.03761 29.6985L 6.03761 30.1985L 6.33733 30.1985L 6.47859 29.9342L 6.03761 29.6985ZM 16.3878 29.6985L 15.9468 29.9342L 16.0881 30.1985L 16.3878 30.1985L 16.3878 29.6985ZM 17.2503 -0.5L 16.3878 -0.5L 16.3878 0.5L 17.2503 0.5L 17.2503 -0.5ZM 15.9468 -0.235653C 15.0383 1.46447 13.2633 2.60798 11.2127 2.60798L 11.2127 3.60798C 13.6472 3.60798 15.7535 2.24784 16.8288 0.235653L 15.9468 -0.235653ZM 11.2127 2.60798C 9.16214 2.60798 7.3871 1.46447 6.47859 -0.235653L 5.59662 0.235653C 6.6719 2.24784 8.77818 3.60798 11.2127 3.60798L 11.2127 2.60798ZM 6.03761 -0.5L 5.17509 -0.5L 5.17509 0.5L 6.03761 0.5L 6.03761 -0.5ZM 5.17509 -0.5C 2.05221 -0.5 -0.5 2.05529 -0.5 5.17997L 0.5 5.17997C 0.5 2.60669 2.60538 0.5 5.17509 0.5L 5.17509 -0.5ZM -0.5 5.17997L -0.5 24.5185L 0.5 24.5185L 0.5 5.17997L -0.5 5.17997ZM -0.5 24.5185C -0.5 27.6432 2.05221 30.1985 5.17509 30.1985L 5.17509 29.1985C 2.60538 29.1985 0.5 27.0918 0.5 24.5185L -0.5 24.5185ZM 5.17509 30.1985L 6.03761 30.1985L 6.03761 29.1985L 5.17509 29.1985L 5.17509 30.1985ZM 6.47859 29.9342C 7.3871 28.234 9.16214 27.0905 11.2127 27.0905L 11.2127 26.0905C 8.77818 26.0905 6.6719 27.4507 5.59662 29.4629L 6.47859 29.9342ZM 11.2127 27.0905C 13.2633 27.0905 15.0383 28.234 15.9468 29.9342L 16.8288 29.4629C 15.7535 27.4507 13.6472 26.0905 11.2127 26.0905L 11.2127 27.0905ZM 16.3878 30.1985L 17.2503 30.1985L 17.2503 29.1985L 16.3878 29.1985L 16.3878 30.1985ZM 17.2503 30.1985C 20.3732 30.1985 22.9254 27.6432 22.9254 24.5185L 21.9254 24.5185C 21.9254 27.0918 19.82 29.1985 17.2503 29.1985L 17.2503 30.1985ZM 22.9254 24.5185L 22.9254 5.17997L 21.9254 5.17997L 21.9254 24.5185L 22.9254 24.5185ZM 22.9254 5.17997C 22.9254 2.05529 20.3732 -0.5 17.2503 -0.5L 17.2503 0.5C 19.82 0.5 21.9254 2.60669 21.9254 5.17997L 22.9254 5.17997ZM 17.6128 20.8062C 17.6128 22.3003 16.4131 23.5005 14.9215 23.5005L 14.9215 24.5005C 16.9663 24.5005 18.6128 22.8517 18.6128 20.8062L 17.6128 20.8062ZM 14.9215 23.5005L 7.50388 23.5005L 7.50388 24.5005L 14.9215 24.5005L 14.9215 23.5005ZM 7.50388 23.5005C 6.01231 23.5005 4.81258 22.3003 4.81258 20.8062L 3.81258 20.8062C 3.81258 22.8517 5.45914 24.5005 7.50388 24.5005L 7.50388 23.5005ZM 4.81258 20.8062L 4.81258 8.89229L 3.81258 8.89229L 3.81258 20.8062L 4.81258 20.8062ZM 4.81258 8.89229C 4.81258 7.39816 6.01231 6.19797 7.50388 6.19797L 7.50388 5.19797C 5.45914 5.19797 3.81258 6.84676 3.81258 8.89229L 4.81258 8.89229ZM 7.50388 6.19797L 14.9215 6.19797L 14.9215 5.19797L 7.50388 5.19797L 7.50388 6.19797ZM 14.9215 6.19797C 16.4131 6.19797 17.6128 7.39816 17.6128 8.89229L 18.6128 8.89229C 18.6128 6.84676 16.9663 5.19797 14.9215 5.19797L 14.9215 6.19797ZM 17.6128 8.89229L 17.6128 20.8062L 18.6128 20.8062L 18.6128 8.89229L 17.6128 8.89229Z"/>
<path id="path2_fill" d="M 49 24.5C 49 38.031 38.031 49 24.5 49C 10.969 49 0 38.031 0 24.5C 0 10.969 10.969 0 24.5 0C 38.031 0 49 10.969 49 24.5Z"/>
<path id="path3_stroke_2x" d="M 47 24.5C 47 36.9264 36.9264 47 24.5 47L 24.5 51C 39.1355 51 51 39.1355 51 24.5L 47 24.5ZM 24.5 47C 12.0736 47 2 36.9264 2 24.5L -2 24.5C -2 39.1355 9.86445 51 24.5 51L 24.5 47ZM 2 24.5C 2 12.0736 12.0736 2 24.5 2L 24.5 -2C 9.86445 -2 -2 9.86445 -2 24.5L 2 24.5ZM 24.5 2C 36.9264 2 47 12.0736 47 24.5L 51 24.5C 51 9.86445 39.1355 -2 24.5 -2L 24.5 2Z"/>
</defs>
</svg>
